<svg width="196" height="26" viewBox="0 0 196 26" fill="none" xmlns="http://www.w3.org/2000/svg">
<path d="M18.5085 21.9924H22.4483V25.8761H18.5085V21.9924ZM9.16388 21.9924H13.195V25.8761H9.16388V21.9924ZM0 21.9924H3.84997V25.8761H0V21.9924ZM18.5085 17.3059H22.4483V21.3491H18.5085V17.3059ZM9.16388 17.3059H13.195V21.3491H9.16388V17.3059ZM0 17.3059H3.84997V21.3491H0V17.3059ZM18.5085 12.6193H22.4483V16.6625H18.5085V12.6193ZM9.16388 12.6193H13.195V16.6625H9.16388V12.6193ZM0 12.6193H3.84997V16.6625H0V12.6193ZM18.5085 8.02471H22.4483V11.976H18.5085V8.02471ZM9.16388 8.02471H13.195V11.976H9.16388V8.02471ZM0 8.02471H3.84997V11.976H0V8.02471ZM18.5085 7.28976V3.33813H19.0585L19.7912 3.43003L20.3409 3.61399L20.9822 3.88976L21.8986 4.80858L22.1732 5.45183L22.3567 6.00318L22.4483 6.7384V7.28976H18.5085ZM13.8364 7.28976V6.7384L13.928 6.00318L14.111 5.45183L14.386 4.80858L15.3021 3.88976L15.9435 3.61399L16.5848 3.43003L17.2261 3.33813H17.7758V7.28976H13.8364ZM9.16388 7.28976V3.33813H9.80519L10.4466 3.43003L11.0879 3.61399L11.6376 3.88976L12.1873 4.34922L12.5537 4.80858L12.9199 5.45183L13.1034 6.00318L13.195 6.7384V7.28976H9.16388ZM4.49138 3.33813H8.52248V7.28976H4.49138V3.33813ZM0 3.33813H3.84997V7.28976H0V3.33813Z" fill="#1E75BC"/>
<path d="M39.5801 25.8762V21.9924H43.5196V22.5437L43.4283 23.2787L43.2449 23.9219L42.9699 24.4733L42.5118 25.0246L41.4125 25.7598L41.0068 25.8762H39.5801ZM34.908 21.9924H38.8475V25.8762H34.908V21.9924ZM30.2355 21.9924H34.175V25.8762H30.2355V21.9924ZM28.0758 25.8762L27.6701 25.7598L26.5707 25.0246L26.1127 24.4733L25.838 23.9219L25.6547 23.2787L25.563 22.5437V21.9924H29.5941V25.8762H28.0758ZM39.5801 17.3059H43.5196V21.3491H39.5801V17.3059ZM25.563 17.3059H29.5941V21.3491H25.563V17.3059ZM39.5801 12.6193H43.5196V16.6626H39.5801V12.6193ZM25.563 12.6193H29.5941V16.6626H25.563V12.6193ZM39.5801 8.02471H43.5196V11.976H39.5801V8.02471ZM25.563 8.02471H29.5941V11.976H25.563V8.02471ZM39.5801 7.28976V3.33813H40.1298L40.7711 3.43003L41.4125 3.61399L41.9622 3.88976L42.5118 4.34922L42.9699 4.80859L43.2449 5.45183L43.4283 6.00318L43.5196 6.73841V7.28976H39.5801ZM34.908 3.33813H38.8475V7.28976H34.908V3.33813ZM30.2355 3.33813H34.175V7.28976H30.2355V3.33813ZM25.563 7.28976V6.73841L25.6547 6.00318L25.838 5.45183L26.1127 4.80859L26.5707 4.34922L27.1204 3.88976L27.6701 3.61399L28.3114 3.43003L28.9528 3.33813H29.5941V7.28976H25.563Z" fill="#1E75BC"/>
<path d="M60.5602 25.876V21.9925H64.5913V22.5438L64.4997 23.2787L64.3166 23.922L64.0416 24.4734L63.5836 25.0247L62.4842 25.7599L62.0796 25.876H60.5602ZM55.9794 21.9925H59.9189V25.876H55.9794V21.9925ZM51.3072 21.9925H55.2467V25.876H51.3072V21.9925ZM46.6348 21.9925H50.5742V25.876H46.6348V21.9925ZM60.5602 21.3492V17.3059H61.2015L61.8429 17.3979L62.4842 17.5814L63.0339 17.8572L63.5836 18.3166L64.0416 18.868L64.3166 19.4193L64.4997 20.0626L64.5913 20.7059V21.3492H60.5602ZM46.6348 17.3059H50.5742V21.3492H46.6348V17.3059ZM60.5602 16.6626V12.6193H64.5913V13.2626L64.4997 13.9059L64.3166 14.5492L64.0416 15.1006L63.5836 15.6519L63.0339 16.1113L62.4842 16.3868L61.8429 16.5707L61.2015 16.6626H60.5602ZM55.9794 12.6193H59.9189V16.6626H55.9794V12.6193ZM51.3072 12.6193H55.2467V16.6626H51.3072V12.6193ZM46.6348 12.6193H50.5742V16.6626H46.6348V12.6193ZM60.5602 8.02471H64.5913V11.9761H60.5602V8.02471ZM46.6348 8.02471H50.5742V11.9761H46.6348V8.02471ZM60.5602 7.28949V3.33813H61.2015L61.8429 3.43012L62.4842 3.61399L63.0339 3.88949L63.5836 4.34922L64.0416 4.80859L64.3166 5.45192L64.4997 6.00328L64.5913 6.73813V7.28949H60.5602ZM55.9794 3.33813H59.9189V7.28949H55.9794V3.33813ZM51.3072 3.33813H55.2467V7.28949H51.3072V3.33813ZM46.6348 3.33813H50.5742V7.28949H46.6348V3.33813Z" fill="#1E75BC"/>
<path d="M67.7063 21.9925H71.6458V25.876H67.7063V21.9925ZM67.7063 17.3059H71.6458V21.3492H67.7063V17.3059ZM67.7063 12.6193H71.6458V16.6626H67.7063V12.6193ZM67.7063 8.02471H71.6458V11.9761H67.7063V8.02471ZM67.7063 3.33813H71.6458V7.28949H67.7063V3.33813Z" fill="#1E75BC"/>
<path d="M84.1057 21.9923H88.0452V25.8755H84.1057V21.9923ZM79.4332 21.9923H83.4643V25.8755H79.4332V21.9923ZM77.2714 25.8755L76.8678 25.7598L75.7684 25.0246L75.0358 23.9219L74.8524 23.2789L74.7607 22.5437V21.9923H78.7918V25.8755H77.2714ZM74.7607 17.3058H78.7918V21.3491H74.7607V17.3058ZM74.7607 12.6193H78.7918V16.6625H74.7607V12.6193ZM74.7607 8.0246H78.7918V11.9759H74.7607V8.0246ZM74.7607 3.33838H78.7918V7.28973H74.7607V3.33838Z" fill="#1E75BC"/>
<path d="M105.177 21.9944H109.117V25.8775H105.177V21.9944ZM100.505 21.9944H104.536V25.8775H100.505V21.9944ZM95.8323 21.9944H99.8634V25.8775H95.8323V21.9944ZM93.6706 25.8775L93.2672 25.7619L92.1675 25.0266L91.4348 23.9239L91.2515 23.281V21.9944H95.1909V25.8775H93.6706ZM91.2515 17.3078H95.1909V21.3511H91.2515V17.3078ZM100.505 12.6213H104.536V16.6646H100.505V12.6213ZM95.8323 12.6213H99.8634V16.6646H95.8323V12.6213ZM91.2515 12.6213H95.1909V16.6646H91.2515V12.6213ZM91.2515 8.02666H95.1909V11.978H91.2515V8.02666ZM105.177 3.34045H109.117V7.2918H105.177V3.34045ZM100.505 3.34045H104.536V7.2918H100.505V3.34045ZM95.8323 3.34045H99.8634V7.2918H95.8323V3.34045ZM91.2515 7.2918V6.00522L91.4348 5.45387L91.8012 4.81063L92.1675 4.35117L92.7172 3.8918L93.2672 3.61595L93.9082 3.43208L94.5496 3.34045H95.1909V7.2918H91.2515Z" fill="#1E75BC"/>
<path d="M121.76 21.9941H125.699V25.8773H121.76V21.9941ZM117.087 21.9941H121.027V25.8773H117.087V21.9941ZM114.925 25.8773L114.522 25.7619L113.423 25.0267L112.965 24.4753L112.69 23.924L112.507 23.2807L112.415 22.5455V21.9941H116.446V25.8773H114.925ZM112.415 17.3076H116.446V21.3508H112.415V17.3076ZM112.415 12.6214H116.446V16.6646H112.415V12.6214ZM112.415 8.02669H116.446V11.978H112.415V8.02669ZM112.415 3.34021H116.446V7.29146H112.415V3.34021Z" fill="#58595B"/>
<path d="M142.831 21.9941H146.771V25.8773H142.831V21.9941ZM128.814 21.9941H132.845V25.8773H128.814V21.9941ZM142.831 17.3076H146.771V21.3508H142.831V17.3076ZM138.159 17.3076H142.098V21.3508H138.159V17.3076ZM133.486 17.3076H137.517V21.3508H133.486V17.3076ZM128.814 17.3076H132.845V21.3508H128.814V17.3076ZM142.831 12.6214H146.771V16.6646H142.831V12.6214ZM128.814 12.6214H132.845V16.6646H128.814V12.6214ZM142.831 8.02669H146.771V11.978H142.831V8.02669ZM128.814 8.02669H132.845V11.978H128.814V8.02669ZM142.831 7.29146V3.34021H143.381L144.114 3.4321L144.664 3.61571L145.305 3.89156L146.221 4.8103L146.496 5.45363L146.679 6.00498L146.771 6.7402V7.29146H142.831ZM138.159 3.34021H142.098V7.29146H138.159V3.34021ZM133.486 3.34021H137.517V7.29146H133.486V3.34021ZM128.814 7.29146V6.7402L128.906 6.00498L129.089 5.45363L129.455 4.8103L129.822 4.35093L130.371 3.89156L130.921 3.61571L131.562 3.4321L132.204 3.34021H132.845V7.29146H128.814Z" fill="#58595B"/>
<path d="M163.903 25.8773V21.9941H167.843V22.5455L167.751 23.2807L167.568 23.924L167.293 24.4753L166.835 25.0267L165.736 25.7619L165.332 25.8773H163.903ZM159.231 21.9941H163.17V25.8773H159.231V21.9941ZM154.558 21.9941H158.498V25.8773H154.558V21.9941ZM149.886 21.9941H153.917V25.8773H149.886V21.9941ZM163.903 21.3508V17.3076H164.453L165.094 17.3996L165.736 17.5834L166.285 17.8589L166.835 18.3187L167.293 18.87L167.568 19.4214L167.751 20.0646L167.843 20.7076V21.3508H163.903ZM149.886 17.3076H153.917V21.3508H149.886V17.3076ZM163.903 16.6646V12.6214H167.843V13.2646L167.751 13.9076L167.568 14.5509L167.293 15.1023L166.835 15.6535L166.285 16.1133L165.736 16.3887L165.094 16.5727L164.453 16.6646H163.903ZM159.231 12.6214H163.17V16.6646H159.231V12.6214ZM154.558 12.6214H158.498V16.6646H154.558V12.6214ZM149.886 12.6214H153.917V16.6646H149.886V12.6214ZM163.903 8.02669H167.843V11.978H163.903V8.02669ZM149.886 8.02669H153.917V11.978H149.886V8.02669ZM163.903 7.29146V3.34021H164.453L165.094 3.4321L165.736 3.6157L166.285 3.89156L166.835 4.35093L167.293 4.81029L167.568 5.45363L167.751 6.00498L167.843 6.7402V7.29146H163.903ZM159.231 3.34021H163.17V7.29146H159.231V3.34021ZM154.558 3.34021H158.498V7.29146H154.558V3.34021ZM149.886 3.34021H153.917V7.29146H149.886V3.34021Z" fill="#58595B"/>
<path d="M184.883 25.8773V21.9941H188.914V22.5455L188.823 23.2807L188.639 23.924L188.364 24.4753L187.906 25.0267L186.807 25.7619L186.404 25.8773H184.883ZM180.302 21.9941H184.242V25.8773H180.302V21.9941ZM175.63 21.9941H179.569V25.8773H175.63V21.9941ZM170.957 21.9941H174.897V25.8773H170.957V21.9941ZM184.883 17.3076H188.914V21.3508H184.883V17.3076ZM184.883 16.6646V12.6214H185.524L186.166 12.713L186.807 12.8969L187.906 13.6321L188.364 14.1834L188.639 14.7348L188.823 15.378L188.914 16.0214V16.6646H184.883ZM180.302 12.6214H184.242V16.6646H180.302V12.6214ZM175.63 12.6214H179.569V16.6646H175.63V12.6214ZM174.347 16.6646L173.706 16.5727L173.065 16.3887L172.515 16.1133L171.965 15.6535L171.507 15.1023L171.232 14.5509L171.049 13.9076L170.957 13.2646V12.6214H174.897V16.6646H174.347ZM170.957 8.02669H174.897V11.978H170.957V8.02669ZM184.883 3.34021H188.914V7.29146H184.883V3.34021ZM180.302 3.34021H184.242V7.29146H180.302V3.34021ZM175.63 3.34021H179.569V7.29146H175.63V3.34021ZM170.957 7.29146V6.7402L171.049 6.00498L171.232 5.45363L171.507 4.81029L171.965 4.35093L172.515 3.89156L173.065 3.6157L173.706 3.4321L174.347 3.34021H174.897V7.29146H170.957Z" fill="#58595B"/>
<path d="M192.212 4.44287L191.663 4.259L191.205 3.89152L190.838 3.34008L190.563 2.78873V1.59423L190.838 1.04279L191.205 0.583329L191.663 0.215854L192.165 0H193.523L193.953 0.215854L194.503 0.583329L194.869 1.04279L195.053 1.59423L195.144 2.23729L195.053 2.78873L194.869 3.34008L194.503 3.89152L194.045 4.259L193.403 4.44287L192.854 4.53486L192.212 4.44287ZM191.937 0.491437L191.479 0.858912L191.205 1.22675L190.93 1.68621V2.69675L191.479 3.61566L191.846 3.89152L192.396 4.0754L192.854 4.16702L193.312 4.0754L193.77 3.89152L194.228 3.61566L194.503 3.15621L194.686 2.69675L194.778 2.23729L194.686 1.68621L194.503 1.22675L194.228 0.858912L193.77 0.491437L193.312 0.307837H192.396L191.937 0.491437ZM192.854 3.52405L192.396 3.43206L191.937 3.15621L191.754 2.78873L191.663 2.23729V1.86981L191.754 1.50225L191.937 1.22675L192.212 1.04279L192.487 0.950896H193.22L193.587 1.13477L193.77 1.31837L193.953 1.59423L193.587 1.68621L193.312 1.41035L193.129 1.31837L192.854 1.22675L192.579 1.31837L192.304 1.50225L192.121 1.77783L192.029 2.23729L192.121 2.60513L192.304 2.97261L192.487 3.15621H193.129L193.312 3.06459L193.495 2.88062L193.587 2.60513L193.953 2.69675L193.861 3.06459L193.587 3.34008L193.22 3.52405H192.854Z" fill="#58595B"/>
</svg>
